<?xml version="1.0" encoding="UTF-8" standalone="no"?>
<!-- Created with Inkscape (http://www.inkscape.org/) -->

<svg
   width="32"
   height="32"
   version="1.1"
   viewBox="0 0 32 32"
   id="svg99"
   sodipodi:docname="com.sega.SonicCD.svg"
   inkscape:version="1.1.1 (3bf5ae0d25, 2021-09-20)"
   xmlns:inkscape="http://www.inkscape.org/namespaces/inkscape"
   xmlns:sodipodi="http://sodipodi.sourceforge.net/DTD/sodipodi-0.dtd"
   xmlns="http://www.w3.org/2000/svg"
   xmlns:svg="http://www.w3.org/2000/svg">
  <defs
     id="defs103" />
  <sodipodi:namedview
     id="namedview101"
     pagecolor="#ffffff"
     bordercolor="#666666"
     borderopacity="1.0"
     inkscape:pageshadow="2"
     inkscape:pageopacity="0.0"
     inkscape:pagecheckerboard="0"
     showgrid="false"
     inkscape:zoom="16"
     inkscape:cx="-9.9375"
     inkscape:cy="10.09375"
     inkscape:window-width="2560"
     inkscape:window-height="1009"
     inkscape:window-x="-8"
     inkscape:window-y="-8"
     inkscape:window-maximized="1"
     inkscape:current-layer="g97" />
  <g
     transform="translate(-32)"
     id="g97">
    <g
       stroke-linecap="round"
       stroke-linejoin="round"
       stroke-width="2"
       id="g91"
       transform="translate(0,0.02996255)">
      <path
         d="m 36,0 h 24 c 2.216,0 4,1.784 4,4 v 24 c 0,2.216 -1.784,4 -4,4 H 36 c -2.216,0 -4,-1.784 -4,-4 V 4 c 0,-2.216 1.784,-4 4,-4 z"
         style="paint-order:stroke fill markers"
         id="path81" />
      <path
         d="m 37,24 h 2 c 0.554,0 1,0.446 1,1 v 2 c 0,0.554 -0.446,1 -1,1 h -2 c -0.554,0 -1,-0.446 -1,-1 v -2 c 0,-0.554 0.446,-1 1,-1 z"
         fill="#ed2227"
         style="paint-order:stroke fill markers"
         id="path83" />
      <path
         d="m 42,24 h 2 c 0.554,0 1,0.446 1,1 v 2 c 0,0.554 -0.446,1 -1,1 h -2 c -0.554,0 -1,-0.446 -1,-1 v -2 c 0,-0.554 0.446,-1 1,-1 z"
         fill="#69bd45"
         style="paint-order:stroke fill markers"
         id="path85" />
      <path
         d="m 47,24 h 2 c 0.554,0 1,0.446 1,1 v 2 c 0,0.554 -0.446,1 -1,1 h -2 c -0.554,0 -1,-0.446 -1,-1 v -2 c 0,-0.554 0.446,-1 1,-1 z"
         fill="#3a57a6"
         style="paint-order:stroke fill markers"
         id="path87" />
      <path
         d="m 47,24 h 2 c 0.554,0 1,0.446 1,1 v 2 c 0,0.554 -0.446,1 -1,1 h -2 c -0.554,0 -1,-0.446 -1,-1 v -2 c 0,-0.554 0.446,-1 1,-1 z"
         fill="#3a57a6"
         style="paint-order:stroke fill markers"
         id="path89" />
    </g>
    <a
       id="a24932"
       transform="translate(-15.87055,-0.804873)"
       style="fill:#ed2227;fill-opacity:1">
      <path
         d="m 52.203525,17.438153 c 0,-0.725333 -0.02958,-3.9767 -0.02598,-4.47328 0.752659,-1.136459 1.018069,-1.928679 1.349812,-2.210635 0.365547,-0.310685 0.980903,-0.8909939 1.487801,-0.9434016 0,0 0.572475,-0.1165034 1.354387,-0.1419625 0.426441,-0.013885 0.869333,0.016 1.328,0.048 0.458667,0.021333 0.890667,0.058667 1.296,0.112 0.405333,0.042667 0.741333,0.096 1.008,0.16 v 2.0159991 c -0.266667,-0.04267 -0.581333,-0.07467 -0.944,-0.096 -0.352,-0.032 -0.72,-0.05333 -1.104,-0.064 -0.384,-0.02133 -0.746667,-0.032 -1.088,-0.032 -0.416,0 -0.746667,0.016 -0.992,0.048 -0.245333,0.02133 -0.437333,0.06933 -0.576,0.144 -0.149333,0.08533 -0.245333,0.197333 -0.288,0.336 -0.032,0.138667 -0.048,0.314667 -0.048,0.528 0,0.266667 -0.01669,4.515947 0.02597,4.66528"
         fill="#ffffff"
         id="path93-6"
         sodipodi:nodetypes="ccscsccccccscccsc"
         style="fill:#ed2227;fill-opacity:1" />
    </a>
    <path
       d="m 48.483,19.116117 v -7.548942 0 L 48.45325,9.314556 47.603,8.992 h -1.904 v 10.124117 z"
       fill="#375eb5"
       id="path95"
       style="fill:#ed2227;fill-opacity:1;stroke-width:0.959013"
       sodipodi:nodetypes="cccccccc" />
    <text
       xml:space="preserve"
       style="font-style:normal;font-weight:normal;font-size:40px;line-height:1.25;font-family:sans-serif;fill:#000000;fill-opacity:1;stroke:none"
       x="46.222221"
       y="14.781523"
       id="text2498"><tspan
         sodipodi:role="line"
         id="tspan2496"></tspan></text>
    <path
       d="m 36.332975,16.63328 c 0,0.725333 0.106667,1.301333 0.32,1.728 0.213333,0.437333 0.506667,0.768 0.88,0.991999 0.384,0.234667 0.826667,0.389334 1.328,0.464001 0.512,0.07467 1.066667,0.112 1.664,0.112 0.426667,0 0.869333,-0.016 1.328,-0.048 0.458667,-0.02133 0.890667,-0.05867 1.296,-0.112 0.405333,-0.04267 0.741333,-0.096 1.008,-0.16 v -2.016 c -0.266667,0.04267 -0.581333,0.07467 -0.944,0.096 -0.352,0.032 -0.72,0.05333 -1.104,0.064 -0.384,0.02133 -0.746667,0.032 -1.088,0.032 -0.416,0 -0.746667,-0.016 -0.992,-0.048 -0.245333,-0.02133 -0.437333,-0.06933 -0.576,-0.144 -0.149333,-0.08533 -0.245333,-0.197333 -0.288,-0.336 -0.032,-0.138667 -0.048,-0.314667 -0.048,-0.528"
       style="fill:#ed2227;fill-opacity:1"
       id="path22049"
       sodipodi:nodetypes="ccccsccccccscccc" />
    <path
       d="m 36.306988,12.16 c 0,-0.725333 0.106667,-1.301333 0.32,-1.728 0.213333,-0.4373332 0.506667,-0.7680002 0.88,-0.9919992 0.384,-0.2346668 0.826667,-0.3893338 1.328,-0.4640008 0.512,-0.07467 1.066667,-0.112 1.664,-0.112 0.426667,0 0.869333,0.016 1.328,0.048 0.458667,0.02133 0.890667,0.05867 1.296,0.112 0.405333,0.04267 0.741333,0.096 1.008,0.16 V 11.2 c -0.266667,-0.04267 -0.581333,-0.07467 -0.944,-0.096 -0.352,-0.032 -0.72,-0.05333 -1.104,-0.064 -0.384,-0.02133 -0.746667,-0.032 -1.088,-0.032 -0.416,0 -0.746667,0.016 -0.992,0.048 -0.245333,0.02133 -0.437333,0.06933 -0.576,0.144 -0.149333,0.08533 -0.245333,0.197333 -0.288,0.336 -0.032,0.138667 -0.048,0.314667 -0.048,0.528"
       style="fill:#ed2227;fill-opacity:1"
       id="path24016" />
    <a
       id="a24932-0"
       transform="matrix(-1,0,0,1.0226167,105.70055,-1.2154728)"
       style="fill:#ed2227;fill-opacity:1">
      <path
         d="m 52.203525,17.438153 c 0,-0.725333 -0.02958,-3.9767 -0.02598,-4.47328 0.752659,-1.136459 1.018069,-1.928679 1.349812,-2.210635 0.365547,-0.310685 0.980903,-0.8909939 1.487801,-0.9434016 0,0 0.572475,-0.1165034 1.354387,-0.1419625 0.426441,-0.013885 0.869333,0.016 1.328,0.048 0.458667,0.021333 0.890667,0.058667 1.296,0.112 0.405333,0.042667 0.741333,0.096 1.008,0.16 v 2.0159991 c -0.266667,-0.04267 -0.581333,-0.07467 -0.944,-0.096 -0.352,-0.032 -0.72,-0.05333 -1.104,-0.064 -0.384,-0.02133 -0.746667,-0.032 -1.088,-0.032 -0.416,0 -0.746667,0.016 -0.992,0.048 -0.245333,0.02133 -0.437333,0.06933 -0.576,0.144 -0.149333,0.08533 -0.245333,0.197333 -0.288,0.336 -0.032,0.138667 -0.048,0.314667 -0.048,0.528 0,0.266667 -0.01669,4.515947 0.02597,4.66528"
         fill="#ffffff"
         id="path93-6-1"
         sodipodi:nodetypes="ccscsccccccscccsc"
         style="fill:#ed2227;fill-opacity:1" />
    </a>
    <path
       d="m 53.497024,16.617073 c 0,0.741738 -0.106667,1.330765 -0.32,1.767082 -0.213333,0.447224 -0.506667,0.78537 -0.88,1.014435 -0.384,0.239974 -0.826667,0.39814 -1.328,0.474495 -0.512,0.07636 -1.066667,0.114533 -1.664,0.114533 -0.426667,0 -0.869333,-0.01636 -1.328,-0.04908 -0.458667,-0.02181 -0.890667,-0.06 -1.296,-0.114533 -0.405333,-0.04364 -1.008,-0.163618 -1.008,-0.163618 l 0.07813,-2.077221 c 0.266667,0.04364 0.503208,0.09199 0.865875,0.113795 0.352,0.03272 0.72,0.05454 1.104,0.06545 0.384,0.02181 0.746667,0.03273 1.088,0.03273 0.416,0 0.746667,-0.01636 0.992,-0.04908 0.245333,-0.02181 0.437333,-0.0709 0.576,-0.147258 0.149333,-0.08726 0.245333,-0.201795 0.288,-0.343598 0.032,-0.141804 0.048,-0.321784 0.048,-0.539942"
       style="fill:#ed2227;fill-opacity:1;stroke-width:1.01125"
       id="path22049-1"
       sodipodi:nodetypes="ccccsccccccscccc" />
    <path
       d="m 53.523011,12.042622 c 0,-0.741737 -0.106667,-1.330764 -0.32,-1.767081 -0.213333,-0.4472239 -0.506667,-0.7853695 -0.88,-1.0144345 -0.384,-0.2399743 -0.826667,-0.3981394 -1.328,-0.4744951 -0.512,-0.076359 -1.066667,-0.1145332 -1.664,-0.1145332 -0.426667,0 -0.869333,0.016362 -1.328,0.049086 -0.458667,0.021813 -0.890667,0.059997 -1.296,0.1145332 -0.405333,0.043635 -0.741333,0.098171 -1.008,0.1636186 v 2.061594 c 0.266667,-0.04364 0.581333,-0.07635 0.944,-0.09817 0.352,-0.03273 0.72,-0.05454 1.104,-0.06545 0.384,-0.02181 0.746667,-0.03273 1.088,-0.03273 0.416,0 0.746667,0.01636 0.992,0.04908 0.245333,0.02181 0.437333,0.0709 0.576,0.147256 0.149333,0.08726 0.245333,0.201797 0.288,0.3436 0.032,0.141803 0.048,0.321784 0.048,0.539941"
       style="fill:#ed2227;fill-opacity:1;stroke-width:1.01125"
       id="path24016-5" />
  </g>
</svg>
